<?xml version="1.0" encoding="UTF-8"?>
<svg id="Layer_2" data-name="Layer 2" xmlns="http://www.w3.org/2000/svg" viewBox="0 0 425.77 182.32">
  <defs>
    <style>
      .cls-1 {
        letter-spacing: -.1em;
      }

      .cls-1, .cls-2, .cls-3 {
        font-family: Alegreya-Regular, Alegreya;
      }

      .cls-1, .cls-3 {
        font-size: 6px;
      }

      .cls-2 {
        font-size: 8px;
        letter-spacing: .2em;
      }

      .cls-4 {
        stroke-dasharray: 2.04 2.04;
      }

      .cls-4, .cls-5, .cls-6 {
        stroke: #000;
        stroke-miterlimit: 10;
        stroke-width: .5px;
      }

      .cls-4, .cls-6 {
        fill: none;
      }

      .cls-3 {
        letter-spacing: .01em;
      }

      .cls-7, .cls-5 {
        fill: #fff;
      }
    </style>
  </defs>
  <g id="Layer_1-2" data-name="Layer 1">
    <rect class="cls-7" width="425.77" height="182.32"/>
    <rect class="cls-5" x="77.62" y="48.38" width="16.85" height="11.95"/>
    <rect class="cls-5" x="175.41" y="97.43" width="74.96" height="18.04"/>
    <text class="cls-2" transform="translate(192 109.42)"><tspan x="0" y="0">Host App</tspan></text>
    <rect class="cls-5" x="175.41" y="144.96" width="74.96" height="18.04"/>
    <text class="cls-2" transform="translate(183.24 156.95)"><tspan x="0" y="0">Analysis App</tspan></text>
    <rect class="cls-5" x="77.62" y="12.83" width="272.25" height="18.04"/>
    <text class="cls-2" transform="translate(164.28 24.82)"><tspan x="0" y="0">Concert Performance</tspan></text>
    <text class="cls-3" transform="translate(218.05 86.78)"><tspan x="0" y="0">Continuous self-reports</tspan></text>
    <text class="cls-3" transform="translate(218.05 132.6)"><tspan x="0" y="0">Data of all 10 participants</tspan></text>
    <polygon class="cls-5" points="86.04 50.17 88.46 54.36 90.88 58.54 86.04 58.54 81.21 58.54 83.63 54.36 86.04 50.17"/>
    <rect class="cls-5" x="106" y="48.38" width="16.85" height="11.95"/>
    <polygon class="cls-5" points="114.42 50.17 116.84 54.36 119.26 58.54 114.42 58.54 109.59 58.54 112.01 54.36 114.42 50.17"/>
    <rect class="cls-5" x="134.37" y="48.38" width="16.85" height="11.95"/>
    <polygon class="cls-5" points="142.8 50.17 145.22 54.36 147.63 58.54 142.8 58.54 137.97 58.54 140.38 54.36 142.8 50.17"/>
    <rect class="cls-5" x="162.75" y="48.38" width="16.85" height="11.95"/>
    <polygon class="cls-5" points="171.18 50.17 173.59 54.36 176.01 58.54 171.18 58.54 166.34 58.54 168.76 54.36 171.18 50.17"/>
    <rect class="cls-5" x="191.13" y="48.38" width="16.85" height="11.95"/>
    <polygon class="cls-5" points="199.56 50.17 201.97 54.36 204.39 58.54 199.56 58.54 194.72 58.54 197.14 54.36 199.56 50.17"/>
    <rect class="cls-5" x="219.51" y="48.38" width="16.85" height="11.95"/>
    <polygon class="cls-5" points="227.93 50.17 230.35 54.36 232.77 58.54 227.93 58.54 223.1 58.54 225.52 54.36 227.93 50.17"/>
    <rect class="cls-5" x="247.89" y="48.38" width="16.85" height="11.95"/>
    <polygon class="cls-5" points="256.31 50.17 258.73 54.36 261.15 58.54 256.31 58.54 251.48 58.54 253.9 54.36 256.31 50.17"/>
    <rect class="cls-5" x="276.26" y="48.38" width="16.85" height="11.95"/>
    <polygon class="cls-5" points="284.69 50.17 287.11 54.36 289.52 58.54 284.69 58.54 279.86 58.54 282.27 54.36 284.69 50.17"/>
    <rect class="cls-5" x="304.64" y="48.38" width="16.85" height="11.95"/>
    <polygon class="cls-5" points="313.07 50.17 315.49 54.36 317.9 58.54 313.07 58.54 308.23 58.54 310.65 54.36 313.07 50.17"/>
    <rect class="cls-5" x="333.02" y="48.38" width="16.85" height="11.95"/>
    <polygon class="cls-5" points="341.45 50.17 343.86 54.36 346.28 58.54 341.45 58.54 336.61 58.54 339.03 54.36 341.45 50.17"/>
    <g>
      <line class="cls-6" x1="212.89" y1="121.85" x2="212.89" y2="140.76"/>
      <polygon points="211.64 140.39 212.89 142.55 214.13 140.39 211.64 140.39"/>
    </g>
    <g>
      <line class="cls-6" x1="212.89" y1="71.68" x2="212.89" y2="93.79"/>
      <polygon points="211.64 93.43 212.89 95.59 214.13 93.43 211.64 93.43"/>
    </g>
    <line class="cls-6" x1="86.04" y1="71.68" x2="341.45" y2="71.68"/>
    <g>
      <line class="cls-6" x1="86.04" y1="64.26" x2="86.04" y2="71.68"/>
      <line class="cls-6" x1="114.42" y1="64.26" x2="114.42" y2="71.68"/>
      <line class="cls-6" x1="142.8" y1="64.26" x2="142.8" y2="71.68"/>
      <line class="cls-6" x1="171.18" y1="64.26" x2="171.18" y2="71.68"/>
      <line class="cls-6" x1="199.56" y1="64.26" x2="199.56" y2="71.68"/>
      <line class="cls-6" x1="227.93" y1="64.26" x2="227.93" y2="71.68"/>
      <line class="cls-6" x1="256.31" y1="64.26" x2="256.31" y2="71.68"/>
      <line class="cls-6" x1="284.69" y1="64.26" x2="284.69" y2="71.68"/>
      <line class="cls-6" x1="313.07" y1="64.26" x2="313.07" y2="71.68"/>
      <line class="cls-6" x1="341.45" y1="64.26" x2="341.45" y2="71.68"/>
    </g>
    <g>
      <g>
        <line class="cls-6" x1="86.04" y1="35.14" x2="86.04" y2="36.14"/>
        <line class="cls-4" x1="86.04" y1="38.18" x2="86.04" y2="41.23"/>
        <line class="cls-6" x1="86.04" y1="42.25" x2="86.04" y2="43.25"/>
      </g>
      <g>
        <line class="cls-6" x1="114.42" y1="35.14" x2="114.42" y2="36.14"/>
        <line class="cls-4" x1="114.42" y1="38.18" x2="114.42" y2="41.23"/>
        <line class="cls-6" x1="114.42" y1="42.25" x2="114.42" y2="43.25"/>
      </g>
      <g>
        <line class="cls-6" x1="142.8" y1="35.14" x2="142.8" y2="36.14"/>
        <line class="cls-4" x1="142.8" y1="38.18" x2="142.8" y2="41.23"/>
        <line class="cls-6" x1="142.8" y1="42.25" x2="142.8" y2="43.25"/>
      </g>
      <g>
        <line class="cls-6" x1="171.18" y1="35.14" x2="171.18" y2="36.14"/>
        <line class="cls-4" x1="171.18" y1="38.18" x2="171.18" y2="41.23"/>
        <line class="cls-6" x1="171.18" y1="42.25" x2="171.18" y2="43.25"/>
      </g>
      <g>
        <line class="cls-6" x1="199.56" y1="35.14" x2="199.56" y2="36.14"/>
        <line class="cls-4" x1="199.56" y1="38.18" x2="199.56" y2="41.23"/>
        <line class="cls-6" x1="199.56" y1="42.25" x2="199.56" y2="43.25"/>
      </g>
      <g>
        <line class="cls-6" x1="227.93" y1="35.14" x2="227.93" y2="36.14"/>
        <line class="cls-4" x1="227.93" y1="38.18" x2="227.93" y2="41.23"/>
        <line class="cls-6" x1="227.93" y1="42.25" x2="227.93" y2="43.25"/>
      </g>
      <g>
        <line class="cls-6" x1="256.31" y1="35.14" x2="256.31" y2="36.14"/>
        <line class="cls-4" x1="256.31" y1="38.18" x2="256.31" y2="41.23"/>
        <line class="cls-6" x1="256.31" y1="42.25" x2="256.31" y2="43.25"/>
      </g>
      <g>
        <line class="cls-6" x1="284.69" y1="35.14" x2="284.69" y2="36.14"/>
        <line class="cls-4" x1="284.69" y1="38.18" x2="284.69" y2="41.23"/>
        <line class="cls-6" x1="284.69" y1="42.25" x2="284.69" y2="43.25"/>
      </g>
      <g>
        <line class="cls-6" x1="313.07" y1="35.14" x2="313.07" y2="36.14"/>
        <line class="cls-4" x1="313.07" y1="38.18" x2="313.07" y2="41.23"/>
        <line class="cls-6" x1="313.07" y1="42.25" x2="313.07" y2="43.25"/>
      </g>
      <g>
        <line class="cls-6" x1="341.45" y1="35.14" x2="341.45" y2="36.14"/>
        <line class="cls-4" x1="341.45" y1="38.18" x2="341.45" y2="41.23"/>
        <line class="cls-6" x1="341.45" y1="42.25" x2="341.45" y2="43.25"/>
      </g>
    </g>
    <g>
      <text class="cls-3" transform="translate(84.98 57.43)"><tspan x="0" y="0">1</tspan></text>
      <text class="cls-3" transform="translate(112.99 57.43)"><tspan x="0" y="0">2</tspan></text>
      <text class="cls-3" transform="translate(141.45 57.43)"><tspan x="0" y="0">3</tspan></text>
      <text class="cls-3" transform="translate(169.83 57.43)"><tspan x="0" y="0">4</tspan></text>
      <text class="cls-3" transform="translate(198.3 57.43)"><tspan x="0" y="0">5</tspan></text>
      <text class="cls-3" transform="translate(226.27 57.43)"><tspan x="0" y="0">6</tspan></text>
      <text class="cls-3" transform="translate(255.05 57.43)"><tspan x="0" y="0">7</tspan></text>
      <text class="cls-3" transform="translate(283.24 57.43)"><tspan x="0" y="0">8</tspan></text>
      <text class="cls-3" transform="translate(311.7 57.43)"><tspan x="0" y="0">9</tspan></text>
      <text class="cls-1" transform="translate(339.12 57.43)"><tspan x="0" y="0">10</tspan></text>
    </g>
  </g>
</svg>