<?xml version="1.0" encoding="UTF-8"?>
<svg id="Layer_2" data-name="Layer 2" xmlns="http://www.w3.org/2000/svg" xmlns:xlink="http://www.w3.org/1999/xlink" viewBox="0 0 351.74 108.26">
  <defs>
    <style>
      .cls-1, .cls-2, .cls-3, .cls-4 {
        fill: none;
      }

      .cls-5 {
        stroke: #1a1a18;
      }

      .cls-5, .cls-6, .cls-2, .cls-7, .cls-8, .cls-9, .cls-10, .cls-3, .cls-4, .cls-11, .cls-12, .cls-13, .cls-14 {
        stroke-miterlimit: 10;
      }

      .cls-5, .cls-6, .cls-2, .cls-7, .cls-8, .cls-9, .cls-3, .cls-11, .cls-13 {
        stroke-width: .25px;
      }

      .cls-5, .cls-15, .cls-10, .cls-13, .cls-14 {
        fill: #fff;
      }

      .cls-6, .cls-2, .cls-7, .cls-8, .cls-13, .cls-14 {
        stroke: #231f20;
      }

      .cls-6, .cls-9 {
        fill: #bcbec0;
      }

      .cls-16 {
        fill: #1d1d1b;
      }

      .cls-7 {
        fill: #e6e7e8;
      }

      .cls-8, .cls-11 {
        fill: #d1d3d4;
      }

      .cls-17 {
        letter-spacing: .02em;
      }

      .cls-17, .cls-18 {
        font-family: Alegreya-Regular, Alegreya;
        font-size: 6px;
      }

      .cls-18 {
        letter-spacing: .01em;
      }

      .cls-19 {
        fill: url(#_6_dpi_20_);
      }

      .cls-9, .cls-10, .cls-3, .cls-4, .cls-11, .cls-12 {
        stroke: #000;
      }

      .cls-10 {
        stroke-width: .27px;
      }

      .cls-4 {
        stroke-width: .5px;
      }

      .cls-20 {
        clip-path: url(#clippath);
      }

      .cls-12 {
        fill: #939598;
        stroke-width: .52px;
      }

      .cls-14 {
        stroke-width: .27px;
      }
    </style>
    <pattern id="_6_dpi_20_" data-name="6 dpi 20%" x="0" y="0" width="48" height="48" patternTransform="translate(-7334.9 -7764.99) scale(.07 .04)" patternUnits="userSpaceOnUse" viewBox="0 0 48 48">
      <g>
        <rect class="cls-1" x="0" y="0" width="48" height="48"/>
        <g>
          <path class="cls-16" d="M24,50.4c1.32,0,2.4-1.07,2.4-2.4s-1.08-2.4-2.4-2.4-2.4,1.08-2.4,2.4,1.07,2.4,2.4,2.4Z"/>
          <path class="cls-16" d="M48,50.4c1.32,0,2.4-1.07,2.4-2.4s-1.08-2.4-2.4-2.4-2.4,1.08-2.4,2.4,1.07,2.4,2.4,2.4Z"/>
          <path class="cls-16" d="M24,26.4c1.32,0,2.4-1.07,2.4-2.4s-1.08-2.4-2.4-2.4-2.4,1.08-2.4,2.4,1.07,2.4,2.4,2.4Z"/>
          <path class="cls-16" d="M48,26.4c1.32,0,2.4-1.07,2.4-2.4s-1.08-2.4-2.4-2.4-2.4,1.08-2.4,2.4,1.07,2.4,2.4,2.4Z"/>
          <path class="cls-16" d="M36,38.4c1.32,0,2.4-1.07,2.4-2.4s-1.08-2.4-2.4-2.4-2.4,1.08-2.4,2.4,1.07,2.4,2.4,2.4Z"/>
          <path class="cls-16" d="M12,38.4c1.32,0,2.4-1.07,2.4-2.4s-1.08-2.4-2.4-2.4-2.4,1.08-2.4,2.4,1.07,2.4,2.4,2.4Z"/>
          <path class="cls-16" d="M36,14.4c1.32,0,2.4-1.07,2.4-2.4s-1.08-2.4-2.4-2.4-2.4,1.08-2.4,2.4,1.07,2.4,2.4,2.4Z"/>
          <path class="cls-16" d="M12,14.4c1.32,0,2.4-1.07,2.4-2.4s-1.08-2.4-2.4-2.4-2.4,1.08-2.4,2.4,1.07,2.4,2.4,2.4Z"/>
        </g>
        <g>
          <path class="cls-16" d="M0,50.4c1.32,0,2.4-1.07,2.4-2.4s-1.08-2.4-2.4-2.4-2.4,1.08-2.4,2.4,1.07,2.4,2.4,2.4Z"/>
          <path class="cls-16" d="M0,26.4c1.32,0,2.4-1.07,2.4-2.4s-1.08-2.4-2.4-2.4-2.4,1.08-2.4,2.4,1.07,2.4,2.4,2.4Z"/>
        </g>
        <g>
          <path class="cls-16" d="M24,2.4c1.32,0,2.4-1.07,2.4-2.4s-1.08-2.4-2.4-2.4-2.4,1.08-2.4,2.4,1.07,2.4,2.4,2.4Z"/>
          <path class="cls-16" d="M48,2.4c1.32,0,2.4-1.07,2.4-2.4s-1.08-2.4-2.4-2.4-2.4,1.08-2.4,2.4,1.07,2.4,2.4,2.4Z"/>
        </g>
        <path class="cls-16" d="M0,2.4c1.32,0,2.4-1.07,2.4-2.4S1.32-2.4,0-2.4-2.4-1.32-2.4,0-1.33,2.4,0,2.4Z"/>
      </g>
    </pattern>
    <clipPath id="clippath">
      <polygon class="cls-1" points="134.54 29.94 193.95 29.94 149.39 55.67 89.98 55.67 134.54 29.94"/>
    </clipPath>
  </defs>
  <g id="Layer_1-2" data-name="Layer 1">
    <rect class="cls-15" width="351.74" height="108.26"/>
    <rect class="cls-12" x="103.94" y="57.69" width="120.21" height="6.8" transform="translate(328.09 122.17) rotate(180)"/>
    <polygon class="cls-9" points="224.15 64.49 109.05 64.49 57.97 93.99 173.08 93.99 224.15 64.49"/>
    <polygon class="cls-11" points="103.94 60.64 57.97 87.19 57.97 93.99 103.94 67.44 103.94 60.64"/>
    <g>
      <rect class="cls-10" x="57.97" y="87.19" width="115.11" height="6.8"/>
      <polygon class="cls-11" points="216.41 62.16 216.41 66.13 180.82 86.7 180.82 82.72 173.08 87.19 173.08 93.99 224.15 64.49 224.15 57.69 216.41 62.16"/>
    </g>
    <g>
      <rect class="cls-7" x="74.62" y="73.12" width="87.3" height="6.12"/>
      <polygon class="cls-6" points="207.89 46.56 161.92 73.12 161.92 79.24 207.89 52.69 207.89 46.56"/>
      <polygon class="cls-13" points="161.92 73.12 74.62 73.12 120.59 46.56 207.89 46.56 161.92 73.12"/>
    </g>
    <g>
      <g>
        <polygon class="cls-15" points="173.08 57.74 57.97 57.74 109.08 28.24 224.19 28.24 173.08 57.74"/>
        <polygon class="cls-19" points="173.08 57.74 57.97 57.74 109.08 28.24 224.19 28.24 173.08 57.74"/>
        <polygon class="cls-3" points="173.08 57.74 57.97 57.74 109.08 28.24 224.19 28.24 173.08 57.74"/>
      </g>
      <g class="cls-20">
        <polygon class="cls-5" points="163.96 30.11 156.61 42.85 149.25 55.59 119.82 55.59 90.4 55.59 127.18 42.85 163.96 30.11"/>
      </g>
    </g>
    <line class="cls-3" x1="67.05" y1="64.55" x2="164.05" y2="64.55"/>
    <rect class="cls-14" x="57.97" y="57.74" width="115.11" height="6.8"/>
    <polygon class="cls-8" points="89.98 55.67 97.45 55.56 162.22 33.12 163.96 30.11 89.98 55.67"/>
    <polygon class="cls-8" points="180.82 60.08 180.82 56.1 216.41 35.54 216.41 39.51 224.15 35.04 224.15 28.24 173.08 57.74 173.08 64.55 180.82 60.08"/>
    <text class="cls-17" transform="translate(207.78 18.93)"><tspan x="0" y="0">Case made of rigid cardboard</tspan></text>
    <text class="cls-18" transform="translate(231.17 55.13)"><tspan x="0" y="0">Tablet device</tspan></text>
    <text class="cls-18" transform="translate(231.17 73.03)"><tspan x="0" y="0">Opening to insert the tablet device</tspan></text>
    <g>
      <line class="cls-4" x1="204.48" y1="17.35" x2="204.48" y2="31.42"/>
      <g>
        <path class="cls-15" d="M202.6,31.32c0,1.04.84,1.88,1.88,1.88s1.88-.84,1.88-1.88-.84-1.88-1.88-1.88-1.88.84-1.88,1.88Z"/>
        <path d="M202.35,31.32c0-1.17.96-2.13,2.13-2.13s2.13.96,2.13,2.13-.96,2.13-2.13,2.13-2.13-.96-2.13-2.13c0-1.17,0,1.17,0,0ZM206.11,31.32c0-.9-.73-1.63-1.63-1.63s-1.63.73-1.63,1.63c0,.9.73,1.63,1.63,1.63s1.63-.73,1.63-1.63,0,.9,0,0Z"/>
      </g>
    </g>
    <g>
      <line class="cls-4" x1="155.88" y1="17.35" x2="155.88" y2="31.42"/>
      <g>
        <path class="cls-15" d="M154,31.32c0,1.04.84,1.88,1.88,1.88s1.88-.84,1.88-1.88-.84-1.88-1.88-1.88-1.88.84-1.88,1.88Z"/>
        <path d="M153.75,31.32c0-1.17.96-2.13,2.13-2.13s2.13.96,2.13,2.13-.96,2.13-2.13,2.13-2.13-.96-2.13-2.13,0,1.17,0,0ZM157.51,31.32c0-.9-.73-1.63-1.63-1.63s-1.63.73-1.63,1.63.73,1.63,1.63,1.63,1.63-.73,1.63-1.63,0,.9,0,0Z"/>
      </g>
    </g>
    <g>
      <line class="cls-4" x1="229.15" y1="53.41" x2="202.63" y2="53.41"/>
      <g>
        <path class="cls-15" d="M202.74,51.53c-1.04,0-1.88.84-1.88,1.88s.84,1.88,1.88,1.88,1.88-.84,1.88-1.88-.84-1.88-1.88-1.88Z"/>
        <path d="M202.74,51.28c1.17,0,2.13.96,2.13,2.13s-.96,2.13-2.13,2.13-2.13-.96-2.13-2.13.96-2.13,2.13-2.13-1.17,0,0,0ZM202.74,55.04c.9,0,1.63-.73,1.63-1.63s-.73-1.63-1.63-1.63-1.63.73-1.63,1.63.73,1.63,1.63,1.63-.9,0,0,0Z"/>
      </g>
    </g>
    <g>
      <line class="cls-4" x1="229.74" y1="71.16" x2="204.39" y2="71.16"/>
      <g>
        <path class="cls-15" d="M204.5,69.28c-1.04,0-1.88.84-1.88,1.88s.84,1.88,1.88,1.88,1.88-.84,1.88-1.88-.84-1.88-1.88-1.88Z"/>
        <path d="M204.5,69.03c1.17,0,2.13.96,2.13,2.13s-.96,2.13-2.13,2.13-2.13-.96-2.13-2.13.96-2.13,2.13-2.13-1.17,0,0,0ZM204.5,72.79c.9,0,1.63-.73,1.63-1.63s-.73-1.63-1.63-1.63-1.63.73-1.63,1.63.73,1.63,1.63,1.63-.9,0,0,0Z"/>
      </g>
    </g>
    <text class="cls-18" transform="translate(104.32 18.93)"><tspan x="0" y="0">Triangular opening</tspan></text>
    <line class="cls-2" x1="154.33" y1="46.56" x2="123.42" y2="46.56"/>
  </g>
</svg>